<svg id="Capa_1" enable-background="new 0 0 512 512" height="512" viewBox="0 0 512 512" width="512" xmlns="http://www.w3.org/2000/svg"><g><path d="m362.535 9.298c-4.702-5.877-11.82-9.298-19.346-9.298h-161.512l-14.177 41.29v16.516h220.629l-13.213-33.032z" fill="#c38c66"/><path d="m181.677 0h-12.867c-7.526 0-14.644 3.421-19.345 9.298l-25.595 31.992v16.516h264.258v-16.516l-13.213-16.516h-168.464c-13.682 0-24.774-11.092-24.774-24.774z" fill="#b57f5f"/><path d="m396.386 57.806h-247.788l-8.258 16.516 31.88 422.404c.65 8.615 7.83 15.273 16.469 15.273h167.607c8.639 0 15.819-6.658 16.47-15.273l6.95-92.082-8.049-13.978 10.01-11.999 21.723-287.829z" fill="#ffe09f"/><path d="m403.399 90.839 1.246-16.516-8.258-16.516h-280.775l-8.258 16.516 31.88 422.404c.65 8.615 7.83 15.273 16.469 15.273h32.985l-6.092-80.716c-1.085-14.376 10.287-26.639 24.704-26.639h172.415l2.493-33.032h-204.115l-19.18-254.136c-1.085-14.376 10.287-26.639 24.704-26.639h219.782z" fill="#f6d190"/><path d="m419.75 57.804c-3.402-9.621-12.578-16.513-23.364-16.513h-214.71c-13.682 0-24.774 24.774-24.774 24.774 0 4.561 257.097-1.981 257.097-1.981z" fill="#c38c66"/><path d="m179.34 388.129h210.525c4.32 0 7.91-3.329 8.235-7.637l16.204-214.71c.362-4.792-3.429-8.88-8.235-8.88h-244.18l-14.89 145.098z" fill="#d19a6e"/><path d="m279.126 211.951-15.86-4.982c-2.38-.341-4.806-.517-7.267-.517-31.926 0-57.806 29.578-57.806 66.065 0 32.61 20.674 59.702 47.86 65.09l19.748.028c27.257-5.321 48.005-32.451 48.005-65.119 0-27.089-14.266-50.369-34.68-60.565z" fill="#966a5b"/><path d="m181.677 41.29h-66.065c-13.616 0-24.667 10.985-24.773 24.576-.036 4.625 3.632 8.456 8.257 8.456h313.806c4.396 0 8.172-3.463 8.254-7.857.058-3.06-.448-5.945-1.412-8.659h-221.551c-9.122 0-16.516-7.394-16.516-16.516z" fill="#b57f5f"/><path d="m161.888 156.903h-55.958c-4.805 0-8.596 4.087-8.234 8.88l16.204 214.71c.325 4.307 3.915 7.637 8.234 7.637h57.206z" fill="#c38c66"/><path d="m279.126 211.951c-4.963-2.48-10.287-4.182-15.86-4.982-2.191 13.206-7.69 21.295-14.049 30.467-8.435 12.161-17.992 25.944-17.992 52.347 0 23.148 7.333 36.661 14.828 47.824 3.233.641 6.552.974 9.946.974 3.333 0 6.623-.327 9.802-.946-.201-.453-.327-1.002-.616-1.425l-2.395-3.476c-8.073-11.645-15.048-21.71-15.048-42.952 0-21.234 6.976-31.29 15.048-42.935 6.267-9.043 13.265-19.296 16.336-34.896z" fill="#785353"/></g></svg>